<?xml version="1.0" encoding="iso-8859-1"?>
<!-- Generator: Adobe Illustrator 24.1.2, SVG Export Plug-In . SVG Version: 6.00 Build 0)  -->
<svg version="1.1" baseProfile="basic" xmlns="http://www.w3.org/2000/svg" xmlns:xlink="http://www.w3.org/1999/xlink" x="0px"
	 y="0px" viewBox="0 0 32 32" xml:space="preserve">
<g id="Layer_2" style="display:none;">
</g>
<g id="Layer_1">
	<path style="fill:none;stroke:#000000;stroke-width:2;stroke-linecap:round;stroke-linejoin:round;" d="M27.076,6.416
		c-7.217-1.919-14.919-1.912-22.139,0C4.32,6.58,3.81,7.038,3.587,7.637C1.468,13.328,1.38,18.66,3.579,24.388
		c0.227,0.59,0.736,1.041,1.347,1.202c7.264,1.912,14.873,1.908,22.148-0.013c0.612-0.162,1.121-0.613,1.347-1.205
		c2.16-5.663,2.158-11.089-0.003-16.753C28.193,7.029,27.686,6.578,27.076,6.416z"/>
	<path style="fill:none;stroke:#000000;stroke-width:2;stroke-linecap:round;stroke-linejoin:round;" d="M12.429,12
		c-0.572,2.294-0.572,5.706,0,8c0.194,0.779,1.081,1.205,1.871,0.901c2.053-0.789,4.714-2.42,6.317-4.007
		c0.51-0.504,0.51-1.285,0-1.789c-1.604-1.586-4.264-3.217-6.317-4.007C13.509,10.795,12.623,11.221,12.429,12z"/>
</g>
</svg>